<svg width="32" height="32" viewBox="0 0 32 32" fill="none" xmlns="http://www.w3.org/2000/svg">
  <defs>
    <linearGradient id="iconGradient" x1="0%" y1="0%" x2="100%" y2="100%">
      <stop offset="0%" style="stop-color:#3B82F6;stop-opacity:1" />
      <stop offset="100%" style="stop-color:#1E40AF;stop-opacity:1" />
    </linearGradient>
  </defs>
  <!-- Letter G shape -->
  <path d="M16 4C10.48 4 6 8.48 6 14C6 19.52 10.48 24 16 24C19.31 24 22.17 22.42 23.89 19.89L20.5 17.5C19.5 19.2 17.87 20.4 16 20.4C12.46 20.4 9.6 17.54 9.6 14C9.6 10.46 12.46 7.6 16 7.6C17.87 7.6 19.5 8.8 20.5 10.5H16V14H26C26 8.48 21.52 4 16 4Z" fill="url(#logoGradient)"/>
  <!-- Blue swoosh element -->
  <path d="M18 16C20 14 24 14 26 16C24 18 20 18 18 16Z" fill="#60A5FA" opacity="0.8"/>
</svg>
