<svg width="32" height="32" viewBox="0 0 32 32" fill="none" xmlns="http://www.w3.org/2000/svg">
  <defs>
    <linearGradient id="iconGradient" x1="0%" y1="0%" x2="100%" y2="100%">
      <stop offset="0%" style="stop-color:#3B82F6;stop-opacity:1" />
      <stop offset="100%" style="stop-color:#1E40AF;stop-opacity:1" />
    </linearGradient>
  </defs>
  <!-- Background circle -->
  <circle cx="16" cy="16" r="16" fill="url(#iconGradient)"/>
  <!-- Wave/swoosh design -->
  <path d="M8 20C12 16 16 12 24 16C24 20 20 24 16 24C12 24 8 20 8 20Z" fill="white" opacity="0.9"/>
  <path d="M6 18C10 14 14 10 22 14C22 18 18 22 14 22C10 22 6 18 6 18Z" fill="white" opacity="0.7"/>
  <path d="M10 22C14 18 18 14 26 18C26 22 22 26 18 26C14 26 10 22 10 22Z" fill="white" opacity="0.5"/>
</svg>
